<svg width="100" height="32" viewBox="0 0 100 32" fill="none" xmlns="http://www.w3.org/2000/svg">
<g clip-path="url(#clip0_421_3445)">
<path fill-rule="evenodd" clip-rule="evenodd" d="M65.4201 31.4681V27.9789C65.4201 27.4225 65.0878 27.1085 64.6843 27.1085C64.2807 27.1085 63.9098 27.4225 63.9098 27.9789V31.4681H61.1258V27.9789C61.1258 27.4225 60.7936 27.1085 60.388 27.1085C59.9824 27.1085 59.6155 27.4225 59.6155 27.9789V31.4681H56.8317V24.8748H59.6155V25.7553C59.8506 25.4386 60.1554 25.1803 60.5064 25.0004C60.8574 24.8205 61.2451 24.7238 61.6395 24.7179C62.5485 24.7179 63.2476 25.1031 63.6165 25.8042C64.181 25.1765 64.8555 24.7179 65.8868 24.7179C67.3134 24.7179 68.2041 25.6351 68.2041 27.1208V31.4681H65.4201ZM52.6658 31.6249C50.4688 31.6249 48.9117 30.0556 48.9117 28.1948V28.1703C48.9117 26.3116 50.481 24.7179 52.6903 24.7179C54.8996 24.7179 56.4444 26.2873 56.4444 28.148V28.1703C56.4444 30.0311 54.873 31.6249 52.674 31.6249H52.6658ZM53.7684 28.1703C53.7736 28.0209 53.7491 27.8721 53.6964 27.7323C53.6436 27.5924 53.5637 27.4643 53.4611 27.3555C53.3586 27.2467 53.2354 27.1593 53.0989 27.0983C52.9624 27.0374 52.8152 27.0043 52.6658 27.0006C52.5189 27.0029 52.3739 27.0346 52.2395 27.094C52.1051 27.1533 51.9839 27.2389 51.8832 27.3459C51.7825 27.4529 51.7042 27.579 51.6531 27.7167C51.602 27.8545 51.5791 28.0012 51.5857 28.148V28.1703C51.5808 28.3199 51.6056 28.469 51.6585 28.609C51.7115 28.749 51.7915 28.8772 51.8942 28.9861C51.9968 29.0951 52.12 29.1826 52.2566 29.2437C52.3932 29.3048 52.5407 29.3383 52.6903 29.3422C52.837 29.3396 52.9818 29.3077 53.116 29.2483C53.2502 29.1888 53.371 29.1031 53.4715 28.9961C53.572 28.8891 53.6502 28.7631 53.7012 28.6255C53.7521 28.4879 53.775 28.3414 53.7684 28.1948V28.1703ZM45.7914 29.2811C46.2805 29.2811 46.5618 29.0386 46.8308 28.6167L48.8506 29.752C48.2514 30.8505 47.2343 31.5516 45.6446 31.5516C44.7943 31.56 43.9698 31.2602 43.3233 30.7078C43.3363 30.6043 43.3432 30.5001 43.3437 30.3959C43.3475 29.9631 43.2381 29.537 43.0265 29.1595C42.8148 28.782 42.5082 28.4663 42.1371 28.2438C42.1371 28.203 42.1371 28.1623 42.1371 28.1216V28.0991C42.1371 26.2526 43.6045 24.6465 45.7832 24.6465C47.2506 24.6465 48.2921 25.3945 48.8057 26.4686L46.8104 27.5794C46.5781 27.1575 46.2846 26.917 45.8322 26.917C45.2452 26.917 44.8132 27.4224 44.8132 28.0746V28.0991C44.8009 28.7859 45.2411 29.2811 45.7914 29.2811ZM41.224 31.4639C40.9522 31.4595 40.6877 31.3749 40.4637 31.2207C40.2398 31.0664 40.0665 30.8494 39.9655 30.5969C39.8645 30.3444 39.8403 30.0677 39.896 29.8016C39.9518 29.5354 40.0849 29.2915 40.2788 29.1008C40.4726 28.9101 40.7185 28.7808 40.9855 28.7294C41.2525 28.6779 41.5287 28.7065 41.7795 28.8116C42.0304 28.9167 42.2446 29.0935 42.3952 29.3199C42.5459 29.5463 42.6263 29.8123 42.6263 30.0842C42.625 30.2669 42.5876 30.4475 42.5164 30.6158C42.4451 30.7841 42.3415 30.9367 42.2112 31.0648C42.081 31.193 41.9268 31.2941 41.7574 31.3626C41.5881 31.4311 41.4068 31.4655 41.224 31.4639Z" fill="#202E3A"/>
<path d="M95.125 11.4745L99.9144 5.25627H92.9971L89.7199 9.96016V3.25691C89.0447 3.14905 88.4206 2.83167 87.9356 2.34963C87.4506 1.8676 87.1294 1.24535 87.0175 0.570801H83.3633V11.7802C82.8538 7.86506 80.3285 4.89145 75.5105 4.89145C71.8522 4.89145 69.0316 7.09466 68.033 10.2985C67.9698 6.95404 65.9703 4.89145 62.7461 4.89145C60.3942 4.89145 58.8554 5.9554 57.5673 7.41058C56.7256 5.78012 55.1217 4.89145 53.0571 4.89145C50.9925 4.89145 49.4171 6.0389 48.4368 7.29843V5.26035H42.076V11.986C41.5909 8.03009 39.0658 5.01376 34.2172 5.01376C31.6676 5.01376 29.5297 6.08778 28.1234 7.82217V18.2754C29.5989 20.02 31.9141 21.035 34.7491 21.035C38.0508 21.035 40.2071 19.6615 41.7174 17.7008L38.3036 14.984C37.2947 16.0214 36.345 16.5532 35.1975 16.5532C33.8259 16.5532 32.7519 15.8522 32.3137 14.5153H42.076V20.5581H48.4327V12.465C48.4327 11.1749 49.2724 10.4473 50.1976 10.4473C51.1229 10.4473 51.8771 11.1749 51.8771 12.465V20.5581H58.2339V12.465C58.2339 11.1749 59.0736 10.4473 59.9989 10.4473C60.9242 10.4473 61.6781 11.1749 61.6781 12.465V20.5581H68.0349V15.6668C69.0662 18.9073 72.0335 20.9291 76.0384 20.9291C79.3421 20.9291 81.4983 19.5574 83.0106 17.5968L79.5948 14.8801C78.5758 15.9175 77.6342 16.4493 76.4868 16.4493C75.1131 16.4493 74.0412 15.7482 73.603 14.4113H83.3591V20.5581H89.7159V17.9697L90.9776 16.3393L93.1888 20.5398H99.9939L95.125 11.4745ZM32.2342 11.6986C32.438 10.2984 33.186 9.40168 34.2498 9.40168C35.3687 9.40168 36.2369 10.2414 36.3755 11.6986H32.2342ZM73.5214 11.5865C73.7252 10.1864 74.4733 9.28963 75.5392 9.28963C76.6581 9.28963 77.5262 10.1293 77.6668 11.5865H73.5214Z" fill="#BE1F54"/>
<path d="M26.9534 21.2265V2.71878C23.45 2.88794 22.4962 0.375 22.4962 0.375C20.2054 6.92332 15.202 3.43211 15.202 3.43211L15.1917 13.1272C15.1917 14.4112 14.4336 15.1388 13.5083 15.1388C12.583 15.1388 11.7413 14.4112 11.7413 13.1272V6.98241V0.493125H0.00609625V6.98241C-0.0142845 9.5728 0.240494 17.88 4.20454 20.0566C9.16521 22.7815 15.6992 18.8847 15.6992 18.8847V23.1016C15.6483 26.4134 5.14407 23.5703 5.14407 23.5703V30.5995C7.76299 31.3923 12.8887 31.5371 12.8887 31.5371H14.5314C28.107 31.5147 26.9534 21.2265 26.9534 21.2265Z" fill="#BE1F54"/>
</g>
<defs>
<clipPath id="clip0_421_3445">
<rect width="100" height="31.2497" fill="white" transform="translate(0 0.375)"/>
</clipPath>
</defs>
</svg>
